<svg width="19" height="20" viewBox="0 0 19 20" fill="none" xmlns="http://www.w3.org/2000/svg">
<path d="M18.44 6.60001L12.3 0.460009L11.42 1.34001L16.5 6.42001H13.5C11.7267 6.42001 10.0267 6.76667 8.4 7.46001C6.82667 8.11334 5.43334 9.04668 4.22 10.26C3.00667 11.4733 2.07334 12.8667 1.42 14.44C0.726672 16.0667 0.380005 17.7667 0.380005 19.54H1.62C1.62 17.9267 1.93334 16.3867 2.56 14.92C3.16 13.4933 4.00667 12.2333 5.1 11.14C6.19334 10.0467 7.45334 9.20001 8.88 8.60001C10.3467 7.97334 11.8867 7.66001 13.5 7.66001H16.5L11.42 12.74L12.3 13.62L18.44 7.48001C18.56 7.36001 18.62 7.21334 18.62 7.04001C18.62 6.86668 18.56 6.72001 18.44 6.60001Z" fill="black"/>
</svg>
